<?xml version="1.0" encoding="UTF-8"?>
<svg xmlns="http://www.w3.org/2000/svg" xmlns:xlink="http://www.w3.org/1999/xlink" viewBox="0 0 64 64" width="64px" height="64px">
<g id="surface46106434">
<path style=" stroke:none;fill-rule:nonzero;fill:rgb(45.09804%,11.372549%,84.705883%);fill-opacity:1;" d="M 10.25 14 C 9.011719 14 8 15.011719 8 16.25 L 8 47.75 C 8 48.988281 9.011719 50 10.25 50 L 53.75 50 C 54.988281 50 56 48.988281 56 47.75 L 56 16.25 C 56 15.011719 54.988281 14 53.75 14 Z M 10.25 15.5 L 53.75 15.5 C 54.164062 15.5 54.5 15.835938 54.5 16.25 L 54.5 47.75 C 54.5 48.164062 54.164062 48.5 53.75 48.5 L 10.25 48.5 C 9.835938 48.5 9.5 48.164062 9.5 47.75 L 9.5 16.25 C 9.5 15.835938 9.835938 15.5 10.25 15.5 Z M 20.75 18.5 C 20.296875 18.5 20 18.835938 20 19.25 L 20 20.75 C 20 21.164062 20.296875 21.5 20.75 21.5 C 21.203125 21.5 21.5 21.164062 21.5 20.75 L 21.5 19.25 C 21.5 18.835938 21.203125 18.5 20.75 18.5 Z M 16.921875 19.5 C 16.820312 19.511719 16.722656 19.546875 16.625 19.605469 C 16.234375 19.828125 16.144531 20.269531 16.351562 20.628906 L 17.101562 21.929688 C 17.242188 22.171875 17.492188 22.304688 17.75 22.304688 C 17.847656 22.320312 17.996094 22.28125 18.125 22.203125 C 18.515625 21.976562 18.605469 21.539062 18.398438 21.179688 L 17.648438 19.878906 C 17.496094 19.609375 17.21875 19.464844 16.921875 19.5 Z M 24.582031 19.503906 C 24.285156 19.464844 24.007812 19.609375 23.851562 19.878906 L 23.101562 21.179688 C 22.894531 21.539062 22.984375 21.976562 23.375 22.203125 C 23.507812 22.277344 23.652344 22.324219 23.75 22.304688 C 24.011719 22.304688 24.261719 22.167969 24.402344 21.929688 L 25.152344 20.628906 C 25.359375 20.269531 25.269531 19.828125 24.875 19.605469 C 24.777344 19.546875 24.679688 19.515625 24.582031 19.503906 Z M 14.347656 22.25 C 14.0625 22.210938 13.773438 22.335938 13.605469 22.625 C 13.378906 23.015625 13.523438 23.441406 13.878906 23.652344 L 15.179688 24.402344 C 15.296875 24.472656 15.40625 24.53125 15.542969 24.523438 C 15.8125 24.507812 16.054688 24.386719 16.203125 24.125 C 16.429688 23.734375 16.289062 23.308594 15.929688 23.101562 L 14.628906 22.351562 C 14.539062 22.300781 14.445312 22.265625 14.347656 22.25 Z M 27.148438 22.25 C 27.054688 22.265625 26.960938 22.300781 26.871094 22.351562 L 25.570312 23.101562 C 25.210938 23.308594 25.070312 23.734375 25.296875 24.125 C 25.445312 24.386719 25.6875 24.507812 25.957031 24.523438 C 26.09375 24.53125 26.203125 24.46875 26.320312 24.398438 L 27.621094 23.648438 C 27.980469 23.441406 28.117188 23.015625 27.894531 22.625 C 27.726562 22.332031 27.433594 22.207031 27.148438 22.25 Z M 20.804688 23.007812 C 18.742188 23.007812 17.0625 24.683594 17.0625 26.75 C 17.0625 28.816406 18.738281 30.496094 20.804688 30.496094 C 22.871094 30.496094 24.550781 28.816406 24.550781 26.75 C 24.550781 24.683594 22.871094 23.007812 20.804688 23.007812 Z M 20.804688 24.496094 C 22.054688 24.496094 23.0625 25.503906 23.0625 26.75 C 23.0625 28 22.054688 29.007812 20.804688 29.007812 C 19.558594 29.007812 18.550781 28 18.550781 26.75 C 18.550781 25.5 19.558594 24.496094 20.804688 24.496094 Z M 13.25 26 C 12.835938 26 12.5 26.296875 12.5 26.75 C 12.5 27.203125 12.835938 27.5 13.25 27.5 L 14.75 27.5 C 15.164062 27.5 15.5 27.203125 15.5 26.75 C 15.5 26.296875 15.164062 26 14.75 26 Z M 26.75 26 C 26.335938 26 26 26.296875 26 26.75 C 26 27.203125 26.335938 27.5 26.75 27.5 L 28.25 27.5 C 28.664062 27.5 29 27.203125 29 26.75 C 29 26.296875 28.664062 26 28.25 26 Z M 15.460938 29 C 15.363281 29.015625 15.269531 29.050781 15.179688 29.101562 L 13.878906 29.851562 C 13.523438 30.058594 13.378906 30.484375 13.605469 30.875 C 13.753906 31.136719 13.996094 31.257812 14.265625 31.273438 C 14.402344 31.28125 14.507812 31.21875 14.628906 31.148438 L 15.929688 30.398438 C 16.289062 30.191406 16.429688 29.765625 16.203125 29.375 C 16.035156 29.082031 15.742188 28.957031 15.460938 29 Z M 26.039062 29 C 25.753906 28.960938 25.464844 29.085938 25.296875 29.375 C 25.070312 29.765625 25.210938 30.191406 25.570312 30.402344 L 26.871094 31.152344 C 26.988281 31.222656 27.097656 31.28125 27.230469 31.273438 C 27.503906 31.257812 27.742188 31.136719 27.894531 30.875 C 28.117188 30.484375 27.980469 30.058594 27.621094 29.851562 L 26.320312 29.101562 C 26.230469 29.050781 26.136719 29.015625 26.039062 29 Z M 17.832031 31.195312 C 17.535156 31.15625 17.253906 31.304688 17.101562 31.574219 L 16.351562 32.871094 C 16.144531 33.230469 16.234375 33.671875 16.625 33.894531 C 16.757812 33.972656 16.902344 34.011719 17 33.996094 C 17.261719 33.996094 17.511719 33.859375 17.652344 33.621094 L 18.402344 32.324219 C 18.609375 31.960938 18.519531 31.523438 18.125 31.296875 C 18.027344 31.242188 17.929688 31.207031 17.832031 31.195312 Z M 23.671875 31.195312 C 23.570312 31.207031 23.472656 31.242188 23.375 31.296875 C 22.984375 31.523438 22.894531 31.960938 23.101562 32.320312 L 23.851562 33.621094 C 23.992188 33.863281 24.242188 33.996094 24.5 33.996094 C 24.597656 34.011719 24.746094 33.96875 24.875 33.894531 C 25.265625 33.671875 25.355469 33.230469 25.148438 32.871094 L 24.398438 31.570312 C 24.246094 31.304688 23.96875 31.15625 23.671875 31.195312 Z M 20.75 32 C 20.296875 32 20 32.335938 20 32.75 L 20 34.25 C 20 34.664062 20.296875 35 20.75 35 C 21.203125 35 21.5 34.664062 21.5 34.25 L 21.5 32.75 C 21.5 32.335938 21.203125 32 20.75 32 Z M 44 32.644531 C 43.417969 32.644531 42.835938 32.855469 42.410156 33.28125 L 37.621094 38.070312 L 35.074219 35.523438 C 34.25 34.699219 32.75 34.699219 31.925781 35.523438 L 21.949219 45.5 L 17.78125 45.5 C 17.3125 45.5 17 45.800781 17 46.25 C 17 46.703125 17.394531 47 17.78125 47 L 52.234375 47 C 52.625 47 53.019531 46.703125 53.019531 46.25 C 53.019531 45.800781 52.625 45.5 52.234375 45.5 L 32.3125 45.5 L 43.46875 34.339844 C 43.753906 34.058594 44.246094 34.058594 44.53125 34.339844 L 51.71875 41.53125 C 52.011719 41.824219 52.488281 41.824219 52.78125 41.53125 C 53.074219 41.238281 53.074219 40.761719 52.78125 40.46875 L 45.589844 33.28125 C 45.164062 32.855469 44.582031 32.644531 44 32.644531 Z M 33.5 36.351562 C 33.6875 36.351562 33.875 36.421875 34.023438 36.574219 L 36.570312 39.117188 L 30.191406 45.5 L 24.050781 45.5 L 32.976562 36.574219 C 33.125 36.421875 33.3125 36.351562 33.5 36.351562 Z M 11.75 45.5 C 11.296875 45.5 11 45.796875 11 46.25 C 11 46.703125 11.296875 47 11.75 47 L 14.75 47 C 15.203125 47 15.5 46.703125 15.5 46.25 C 15.5 45.796875 15.203125 45.5 14.75 45.5 Z M 11.75 45.5 "/>
</g>
</svg>
